<svg width="64" height="64" viewBox="0 0 24 24" fill="none" xmlns="http://www.w3.org/2000/svg"><g id="SVGRepo_iconCarrier" fill="#fff"><path d="M20 1a3 3 0 0 1 3 3v4a1 1 0 1 1-2 0V4a1 1 0 0 0-1-1h-4a1 1 0 1 1 0-2h4ZM22 15a1 1 0 0 1 1 1v4a3 3 0 0 1-3 3h-4a1 1 0 1 1 0-2h4a1 1 0 0 0 1-1v-4a1 1 0 0 1 1-1ZM4 21h4a1 1 0 1 1 0 2H4a3 3 0 0 1-3-3v-4a1 1 0 1 1 2 0v4a1 1 0 0 0 1 1ZM2 9a1 1 0 0 1-1-1V4a3 3 0 0 1 3-3h4a1 1 0 0 1 0 2H4a1 1 0 0 0-1 1v4a1 1 0 0 1-1 1Z"/><path fill-rule="evenodd" clip-rule="evenodd" d="M12 16a4 4 0 1 0 0-8 4 4 0 0 0 0 8Zm0-1.986a2.014 2.014 0 1 1 0-4.028 2.014 2.014 0 0 1 0 4.028Z"/></g></svg>